<?xml version="1.0" encoding="iso-8859-1"?>
<!-- Uploaded to: SVG Repo, www.svgrepo.com, Generator: SVG Repo Mixer Tools -->
<svg fill="#000000" version="1.1" id="Capa_1" xmlns="http://www.w3.org/2000/svg" xmlns:xlink="http://www.w3.org/1999/xlink" 
	 viewBox="0 0 490 490" xml:space="preserve">
<g>
	<g>
		<g>
			<rect x="138.9" width="212.2" height="57.1"/>
			<rect x="176.2" y="76.9" width="137.6" height="37.7"/>
			<path d="M369.3,184.2l-39.6-49.7H160.3l-39.6,49.7c-2.7,3.5-4.3,7.4-4.3,12V471c0,10.5,8.5,19,19,19h219.2c10.5,0,19-8.5,19-19
				V195.8C373.6,191.6,372.1,187.3,369.3,184.2z M339,288.3c4.7,14.8-0.8,31.9-14.4,40.8s-31.5,7.8-43.1-2.7L339,288.3z
				 M284.6,269.3c13.6-8.9,31.5-7.8,43.1,2.7l-57.5,38.5C265.6,295.3,271,278.2,284.6,269.3z M166.1,268.9l19.4,66.4
				c-15.5,0-30.3-10.1-35-26C146.3,293.4,152.9,277.1,166.1,268.9z M165.3,445.3c-13.6-8.9-19-26-14.4-40.8l57.5,38.5
				C196.8,452.7,179.3,454.3,165.3,445.3z M219.7,426.3l-57.5-38.5c12-10.1,29.5-11.7,43.1-2.7C219,394,224.4,411.1,219.7,426.3z
				 M204.6,329.5l-19.4-66.4c15.5,0,30.3,10.1,35,26C224.9,305,217.8,321.4,204.6,329.5z M272.6,398.3c7.8-14.8,24.1-21.8,39.2-18.3
				l-32.3,61.4C268.3,430.5,265.2,413.1,272.6,398.3z M336.3,432.1c-7.8,14.8-24.1,21.8-39.2,18.3l32.3-61.4
				C341,399.8,344.1,417.3,336.3,432.1z"/>
		</g>
	</g>
</g>
</svg>