<?xml version="1.0" encoding="iso-8859-1"?>
<!-- Uploaded to: SVG Repo, www.svgrepo.com, Generator: SVG Repo Mixer Tools -->
<svg fill="#000000" height="800px" width="800px" version="1.1" id="Layer_1" xmlns="http://www.w3.org/2000/svg" xmlns:xlink="http://www.w3.org/1999/xlink" 
	 viewBox="0 0 512 512" xml:space="preserve">
<g>
	<g>
		<path d="M256,0C114.615,0,0,114.615,0,256s114.615,256,256,256s256-114.615,256-256S397.385,0,256,0z M190.63,162.186
			c15.684,0,28.444,12.76,28.444,28.444s-12.76,28.444-28.444,28.444s-28.444-12.76-28.444-28.444S174.946,162.186,190.63,162.186z
			 M321.37,349.814c-15.684,0-28.444-12.76-28.444-28.444s12.76-28.444,28.444-28.444s28.444,12.76,28.444,28.444
			S337.054,349.814,321.37,349.814z M180.575,361.594l-30.17-30.17l181.019-181.019l30.17,30.17L180.575,361.594z"/>
	</g>
</g>
</svg>